<svg xmlns="http://www.w3.org/2000/svg" xmlns:svg="http://www.w3.org/2000/svg" id="svg4169" version="1.1" viewBox="0 0 1000 1000"><metadata id="metadata4174"/><g id="layer1"><path id="path4717" d="m 939.5,227.94118 q -37,54 -90,93 0,8 0,23 0,73 -21,145 -21,72 -64,139 -43,67 -103,117 -60,50 -144,82 -84,32 -181,30 -151,0 -276,-81 19,2 43,2 126,0 224,-77 -59,-1 -105,-36 -46,-35 -64,-89 19,3 34,3 24,0 48,-6 -63,-13 -104,-62 -41,-49 -41,-115 l 0,-2 q 38,21 82,23 -37,-25 -59,-64 -22,-39 -22,-86 0,-49 25,-91 68,83 164,133 96,50 208,55 -5,-21 -5,-41 0,-75 53,-127 53,-52 127,-53 79,0 132,57 61,-12 115,-44 -21,64 -80,100 52,-6 104,-28 z"/></g></svg>